#!OML:ASF F:\VICON\USERDATA\INSTALL\rory3\rory3.ASF
:FULLY-SPECIFIED
:DEGREES
336
root -1.00186 18.743 -1.1139 6.35638 -5.73343 0.731437
lowerback 7.62029 0.241461 0.0910496
upperback 1.19724 0.315629 -0.331087
thorax -3.03206 0.153762 -0.424624
lowerneck -11.1841 -1.42948 -7.5103
upperneck 1.58085 -1.242 7.28565
head 2.36879 -0.418796 3.36208
rclavicle 8.66577e-015 1.63997e-014
rhumerus -28.6949 -2.34079 -80.7627
rradius 29.1577
rwrist 12.9795
rhand -24.9083 -2.51017
rfingers 7.12502
rthumb 1.60014 -32.4839
lclavicle 8.66577e-015 1.63997e-014
lhumerus -30.4512 17.0894 75.0298
lradius 26.8362
lwrist -2.49319
lhand -19.1313 25.8157
lfingers 7.12502
lthumb 7.17839 55.674
rfemur -10.3952 16.4096 18.6418
rtibia 27.5388
rfoot -20.0857 -15.6566
rtoes -4.41169
lfemur -7.87776 -2.45496 -17.9522
ltibia 22.7285
lfoot -17.871 12.1947
ltoes -7.49026
337
root -1.00099 18.7449 -1.11477 6.40369 -5.73466 0.6595
lowerback 7.54408 0.251466 0.148706
upperback 1.08615 0.333296 -0.340588
thorax -3.10384 0.161673 -0.468601
lowerneck -11.1444 -1.44669 -7.41028
upperneck 1.52697 -1.27643 7.23295
head 2.34778 -0.437708 3.3276
rclavicle 7.12519e-015 -8.00108e-015
rhumerus -28.8961 -2.37859 -80.7411
rradius 29.2489
rwrist 13.0582
rhand -25.1112 -2.5232
rfingers 7.12502
rthumb 1.40417 -32.4983
lclavicle 7.12519e-015 -8.00108e-015
lhumerus -30.7684 17.1731 74.8721
lradius 26.698
lwrist -2.60125
lhand -19.3997 25.6208
lfingers 7.12502
lthumb 6.91934 55.4878
rfemur -10.306 16.3934 18.7196
rtibia 27.2404
rfoot -19.9564 -15.775
rtoes -4.39598
lfemur -7.90057 -2.52826 -17.8765
ltibia 22.6625
lfoot -17.8466 12.2928
ltoes -7.64683
338
root -0.999733 18.7472 -1.11494 6.46657 -5.81957 0.569105
lowerback 7.44283 0.279582 0.224226
upperback 0.973547 0.376192 -0.356911
thorax -3.16272 0.181792 -0.532035
lowerneck -10.8813 -1.46361 -7.32542
upperneck 1.15474 -1.3058 6.88416
head 2.44902 -0.480929 3.55622
rclavicle -6.02877e-015 -1.89591e-014
rhumerus -29.0312 -2.46863 -80.717
rradius 29.2378
rwrist 13.1608
rhand -25.2 -2.59292
rfingers 7.12502
rthumb 1.31845 -32.5686
lclavicle -6.02877e-015 -1.89591e-014
lhumerus -31.0809 17.142 74.7238
lradius 26.5854
lwrist -2.51341
lhand -19.778 25.0075
lfingers 7.12502
lthumb 6.55415 54.8861
rfemur -10.2515 16.4757 18.7933
rtibia 26.9919
rfoot -20.0568 -15.7149
rtoes -4.2566
lfemur -7.88641 -2.4739 -17.7969
ltibia 22.5523
lfoot -17.8062 12.3649
ltoes -7.8038
339
root -0.999338 18.7494 -1.11569 6.4884 -5.92989 0.593555
lowerback 7.34359 0.304046 0.159276
upperback 0.927548 0.402518 -0.384804
thorax -3.15481 0.195478 -0.526483
lowerneck -10.8775 -1.48153 -7.30375
upperneck 1.15758 -1.33135 6.8497
head 2.45023 -0.494654 3.53827
rclavicle -2.81249e-015 1.08338e-014
rhumerus -29.0803 -2.39391 -80.7246
rradius 29.3235
rwrist 12.9955
rhand -25.054 -3.00836
rfingers 7.12502
rthumb 1.45946 -32.9831
lclavicle -2.81249e-015 1.08338e-014
lhumerus -31.2894 17.2134 74.6105
lradius 26.4967
lwrist -2.64693
lhand -19.7326 25.052
lfingers 7.12502
lthumb 6.59792 54.9292
rfemur -10.1802 16.5896 18.7442
rtibia 26.8034
rfoot -20.1686 -15.6625
rtoes -4.04491
lfemur -7.79726 -2.44061 -17.8507
ltibia 22.4041
lfoot -17.7858 12.4759
ltoes -7.76265
340
root -0.998547 18.75 -1.11957 6.52008 -5.98642 0.689521
lowerback 7.25058 0.30932 0.0162175
upperback 0.902732 0.397061 -0.420143
thorax -3.12928 0.194341 -0.481495
lowerneck -11.1336 -1.50264 -7.40632
upperneck 1.58236 -1.35317 7.20076
head 2.36794 -0.477202 3.31296
rclavicle 1.92396e-014 -4.54409e-015
rhumerus -29.1398 -2.21783 -80.7569
rradius 29.5473
rwrist 12.8005
rhand -24.9187 -3.32903
rfingers 7.12502
rthumb 1.59013 -33.3028
lclavicle 1.92396e-014 -4.54409e-015
lhumerus -31.473 17.4606 74.4396
lradius 26.4213
lwrist -3.06806
lhand -19.4104 25.5422
lfingers 7.12502
lthumb 6.90902 55.4094
rfemur -10.1528 16.6618 18.6161
rtibia 26.6629
rfoot -20.2703 -15.7192
rtoes -4.07677
lfemur -7.73552 -2.38369 -17.9721
ltibia 22.2377
lfoot -17.76 12.4655
ltoes -7.64495
341
root -0.996901 18.7511 -1.12487 6.563 -6.00639 0.854071
lowerback 7.15676 0.304193 -0.185714
upperback 0.835524 0.372918 -0.467351
thorax -3.14749 0.184522 -0.414066
lowerneck -11.07 -1.5578 -7.73389
upperneck 1.68202 -1.40557 7.49393
head 2.39709 -0.496713 3.45401
rclavicle 2.99808e-015 9.49507e-015
rhumerus -29.2111 -2.02338 -80.7663
rradius 29.6586
rwrist 12.7261
rhand -25.1082 -3.12723
rfingers 7.12502
rthumb 1.40709 -33.1023
lclavicle 2.99808e-015 9.49507e-015
lhumerus -31.7659 17.7221 74.2364
lradius 26.4267
lwrist -3.47537
lhand -18.9601 25.3669
lfingers 7.12502
lthumb 7.34363 55.2195
rfemur -10.1453 16.6886 18.4153
rtibia 26.5158
rfoot -20.2771 -15.7722
rtoes -3.99631
lfemur -7.71315 -2.36804 -18.1604
ltibia 22.0647
lfoot -17.7264 12.4902
ltoes -7.6827
